<svg width="1500px" height="800px" viewBox="0 0 600 140" fill="none" xmlns="http://www.w3.org/2000/svg">
<path d="M113.597 10C79.7732 10 52.252 36.9179 52.252 69.9999C52.252 103.082 79.7732 130 113.597 130C147.42 130 174.941 103.086 174.941 69.9999C174.941 36.9135 147.42 10 113.597 10ZM75.2945 104.029C72.5113 101.035 70.0891 97.709 68.0966 94.1241C67.3014 92.6892 66.5701 91.2142 65.9166 89.6989C65.743 89.301 65.5921 88.8898 65.4276 88.4875H88.1137V100.605C88.1137 101.607 88.9409 102.416 89.9646 102.416H100.768C101.792 102.416 102.619 101.607 102.619 100.605V75.699H124.57V100.605C124.57 101.607 125.397 102.416 126.42 102.416H137.224C138.248 102.416 139.075 101.607 139.075 100.605V62.9061H164.823C165.157 65.226 165.34 67.5906 165.34 69.9999C165.34 97.9504 142.174 120.608 113.597 120.608C98.4147 120.608 84.7592 114.212 75.2945 104.029V104.029ZM86.7655 26.7175C88.1868 25.8727 89.6538 25.0905 91.162 24.3798C92.6701 23.669 94.2194 23.0298 95.8052 22.4622C96.5958 22.1761 97.4002 21.9124 98.2091 21.6665C99.8315 21.1748 101.486 20.7547 103.168 20.4194C106.536 19.7444 110.023 19.3913 113.597 19.3913C118.062 19.3913 122.394 19.9456 126.53 20.9826C142.672 25.0458 155.751 36.5424 161.766 51.5122H139.08V39.3943C139.08 38.393 138.252 37.5839 137.229 37.5839H126.425C125.401 37.5839 124.574 38.393 124.574 39.3943V64.3007H102.624V39.3943C102.624 38.393 101.797 37.5839 100.773 37.5839H89.9692C88.9455 37.5839 88.1183 38.393 88.1183 39.3943V77.0937H62.3702C62.0366 74.7738 61.8538 72.4092 61.8538 69.9999C61.8538 65.6328 62.4205 61.3953 63.4807 57.35C64.1206 54.9228 64.934 52.5672 65.9166 50.2964C66.2457 49.541 66.5884 48.7901 66.954 48.0525C71.3139 39.2021 78.2285 31.782 86.7655 26.7131V26.7175Z" fill="#ffffff"/>
<path d="M241.798 42.7461H234.582C233.8 42.7461 233.279 43.2557 233.279 44.02V68.6762H208.07V44.02C208.07 43.2557 207.549 42.7461 206.768 42.7461H199.552C198.77 42.7461 198.336 43.2557 198.336 44.02V100.98C198.336 101.745 198.77 102.254 199.552 102.254H206.768C207.549 102.254 208.07 101.745 208.07 100.98V77.0886H233.279V100.98C233.279 101.745 233.8 102.254 234.582 102.254H241.798C242.579 102.254 243.013 101.745 243.013 100.98V44.02C243.013 43.2557 242.579 42.7461 241.798 42.7461V42.7461Z" fill="#ffffff"/>
<path d="M275.005 59.5762C262.054 59.5762 253.361 69.0122 253.361 81.2553C253.361 93.4985 262.401 103.274 276.308 103.274C282.304 103.274 287.783 101.576 291.517 98.0042C292.212 97.3247 292.386 96.8152 291.865 96.1313L289.429 92.8995C289.081 92.3899 288.56 92.305 288.039 92.6447C284.648 94.8573 281.262 95.8765 277.089 95.8765C268.658 95.8765 263.617 91.4557 262.488 84.8268H291.17C294.387 84.8268 295.169 83.0433 295.169 79.3869C295.169 69.0167 287.779 59.5762 275.001 59.5762H275.005ZM262.401 78.1934C263.356 71.3097 268.31 67.3136 275.005 67.3136C281.701 67.3136 286.307 71.3947 286.828 78.1934H262.406H262.401Z" fill="#ffffff"/>
<path d="M345.764 60.5959H339.421C338.639 60.5959 338.205 61.1055 338.205 61.8698L338.031 67.4796C335.075 62.6342 330.034 59.5723 322.996 59.5723C310.825 59.5723 302.48 69.0932 302.48 81.4213C302.48 93.7494 310.825 103.27 322.996 103.27C329.951 103.27 334.992 100.293 338.031 95.4479L338.205 100.973C338.205 101.737 338.639 102.247 339.421 102.247H345.764C346.546 102.247 346.98 101.737 346.98 100.973V61.8653C346.98 61.101 346.546 60.5914 345.764 60.5914V60.5959ZM324.815 94.8579C317.164 94.8579 311.602 89.5029 311.602 81.4258C311.602 73.3486 317.164 67.9936 324.815 67.9936C332.465 67.9936 337.68 73.4335 337.68 81.5107C337.68 89.5879 332.378 94.8579 324.815 94.8579V94.8579Z" fill="#ffffff"/>
<path d="M366.798 41.4629H359.843C359.061 41.4629 358.627 41.9725 358.627 42.7368V100.971C358.627 101.735 359.061 102.245 359.843 102.245H366.798C367.58 102.245 368.014 101.735 368.014 100.971V42.7368C368.014 41.9725 367.58 41.4629 366.798 41.4629Z" fill="#ffffff"/>
<path d="M399.223 60.5985H392.359V50.8228C392.359 50.0584 391.925 49.5488 391.143 49.5488H384.101C383.319 49.5488 382.885 50.0584 382.885 50.8228V60.5985H377.41C376.628 60.5985 376.194 61.1081 376.194 61.8724V66.6329C376.194 67.3973 376.628 67.9068 377.41 67.9068H382.885V92.0534C382.885 99.7909 387.665 102.763 394.009 102.763C396.618 102.763 400.439 102.254 400.439 100.551V95.9601C400.439 95.1108 399.918 94.6862 398.876 94.8561C397.921 94.941 396.879 94.941 396.179 94.941C393.748 94.941 392.354 93.752 392.354 90.9449V67.9068H399.219C400 67.9068 400.521 67.3973 400.521 66.6329V61.8724C400.521 61.1081 400 60.5985 399.219 60.5985H399.223Z" fill="#ffffff"/>
<path d="M432.344 59.5759C425.649 59.5759 421.394 62.8076 418.958 67.0585V42.7466C418.958 41.9822 418.524 41.4727 417.743 41.4727H410.787C410.005 41.4727 409.571 41.9822 409.571 42.7466V100.981C409.571 101.745 410.005 102.255 410.787 102.255H417.743C418.524 102.255 418.958 101.745 418.958 100.981V78.3675C418.958 71.819 423.131 68.0822 429.127 68.0822C435.123 68.0822 438.427 71.8235 438.427 78.3675V100.981C438.427 101.745 438.861 102.255 439.643 102.255H446.507C447.289 102.255 447.81 101.745 447.81 100.981V76.6644C447.81 65.6952 441.379 59.5759 432.335 59.5759H432.344Z" fill="#ffffff"/>
<path d="M464.162 41.0469C461.031 41.0469 458.687 43.4249 458.687 46.3169C458.687 49.209 461.036 51.6719 464.162 51.6719C467.287 51.6719 469.55 49.2939 469.55 46.3169C469.55 43.3399 467.201 41.0469 464.162 41.0469V41.0469Z" fill="#ffffff"/>
<path d="M467.639 60.5918H460.597C459.815 60.5918 459.381 61.1014 459.381 61.8657V100.973C459.381 101.738 459.815 102.247 460.597 102.247H467.639C468.421 102.247 468.855 101.738 468.855 100.973V61.8657C468.855 61.1014 468.421 60.5918 467.639 60.5918V60.5918Z" fill="#ffffff"/>
<path d="M546.199 60.5906H539.156C538.462 60.5906 537.941 60.9303 537.68 61.6097L526.118 91.7058L514.642 61.6097C514.382 60.9303 513.861 60.5906 513.166 60.5906H492.756V54.3014C492.756 50.8998 493.711 48.3519 498.231 48.3519C499.186 48.3519 500.228 48.5218 501.535 48.6916C502.056 48.7766 502.577 48.6916 502.577 48.0971V42.3175C502.577 41.723 502.403 41.3833 501.795 41.1285C500.059 40.2792 498.404 40.1094 496.407 40.1094C488.062 40.1094 483.369 44.2753 483.369 52.7772V60.5995H478.241C477.46 60.5995 477.025 61.1091 477.025 61.8735V66.6339C477.025 67.3983 477.46 67.9079 478.241 67.9079H483.369V100.981C483.369 101.745 483.803 102.255 484.584 102.255H491.54C492.322 102.255 492.756 101.745 492.756 100.981V67.9079H507.472L521.506 102.34L515.424 117.046C514.989 117.895 515.424 118.405 516.379 118.405H523.156C523.851 118.405 524.459 118.065 524.719 117.386L547.145 62.0389C547.492 61.1046 547.145 60.5951 546.19 60.5951L546.199 60.5906Z" fill="#ffffff"/>
</svg>
